<svg width="128" height="128" viewBox="0 0 128 128" fill="none" xmlns="http://www.w3.org/2000/svg">
<path fill-rule="evenodd" clip-rule="evenodd" d="M6.79716 75.3077C6.79716 75.3077 6.79716 75.3077 6.79716 75.3077H14.8828L6.79716 75.3077ZM6.8106 75.4044C10.893 104.583 35.1755 127 64.5207 127C93.8684 127 118.153 104.579 122.232 75.3966L115.387 82.7947L114.077 75.8063C109.914 100.521 89.1155 119 64.5207 119C39.9035 119 19.0894 100.487 14.9531 75.7389L13.2264 82.8462L6.8106 75.4044Z" fill="black"/>
<path fill-rule="evenodd" clip-rule="evenodd" d="M26.9126 95.3411C26.6966 95.5132 26.6551 95.8322 26.82 96.0537C26.9849 96.2752 27.2937 96.3153 27.5097 96.1433L56.5114 73.0528L57.0757 71.2568L46.5108 77.565L46.9983 78.4382L51.5755 75.7051L26.9126 95.3411ZM57.1952 69.8574C57.1073 69.5212 56.9323 69.2088 56.6813 68.9556L56.6372 68.9745L44.5402 72.3267L44.791 73.2948L49.8645 71.8889L21.0212 84.3001C20.7697 84.4084 20.65 84.7055 20.7539 84.9638C20.8578 85.222 21.1459 85.3436 21.3975 85.2353L57.0259 69.9043L57.1952 69.8574ZM55.3692 67.9432L53.7616 66.7353H43.9462V67.7353H49.4525L18.0933 72.0574C17.8236 72.0946 17.634 72.3498 17.6698 72.6275C17.7056 72.9052 17.9532 73.1002 18.2229 73.063L55.3692 67.9432ZM53.0801 66.2233L51.4182 64.9745L18.3292 60.5247C18.06 60.4885 17.8134 60.6848 17.7784 60.9632C17.7434 61.2416 17.9332 61.4967 18.2024 61.5329L53.0801 66.2233ZM50.1137 63.6898C49.9588 63.3452 49.9137 62.9707 49.9636 62.6107L44.7722 61.1721L44.5214 62.1401L50.1137 63.6898ZM51.2023 61.0073C51.4264 60.92 51.6761 60.871 51.9481 60.871H55.096L46.9648 56.0159L46.4774 56.8891L52.3449 60.3925L21.7135 47.3298C21.4631 47.223 21.176 47.3473 21.0723 47.6074C20.9686 47.8675 21.0876 48.1649 21.338 48.2717L51.2023 61.0073ZM57.1635 60.871H58.8707C59.0099 60.871 59.1466 60.8566 59.279 60.829L50.3759 51.6216L49.6808 52.3405L55.1379 57.9841L28.0157 36.5317C27.8008 36.3618 27.4925 36.4055 27.327 36.6294C27.1614 36.8532 27.2014 37.1724 27.4162 37.3423L57.1635 60.871ZM59.9499 60.5549C60.3354 60.3077 60.6345 59.9294 60.7787 59.4704L60.863 59.2022L54.772 48.2917L53.9135 48.8044L58.3064 56.6732L36.8053 27.7897C36.6404 27.5682 36.3316 27.5281 36.1156 27.7001C35.8995 27.8721 35.8581 28.1911 36.023 28.4126L59.9499 60.5549ZM61.1432 58.3103L62.1465 55.117L59.8502 46.2541L58.8865 46.5211L61.4508 56.4184L47.4825 21.6993C47.3786 21.4411 47.0905 21.3195 46.8389 21.4278C46.5873 21.536 46.4676 21.8331 46.5715 22.0913L61.1432 58.3103ZM62.7669 53.1424L62.8749 52.7985C63.0142 52.3551 63.2695 52.0169 63.5857 51.7841L59.3191 18.6749C59.2834 18.3972 59.0357 18.2023 58.7661 18.2394C58.4964 18.2766 58.3068 18.5318 58.3426 18.8095L62.7669 53.1424ZM64.2625 51.464C64.5889 51.3795 64.9346 51.3762 65.2625 51.4539V45.648H64.2625V51.464ZM66.3414 52.1321C66.4899 52.3187 66.61 52.5408 66.691 52.7985L67.0895 54.0668L71.5085 18.9217C71.5435 18.6433 71.3537 18.3882 71.0845 18.352C70.8153 18.3158 70.5687 18.5122 70.5337 18.7906L66.3414 52.1321ZM67.4194 55.117L67.9855 56.9187L70.6793 46.5217L69.7156 46.2547L67.4194 55.117ZM68.1704 57.5073L68.638 58.9957L83.2207 22.4221C83.3244 22.162 83.2055 21.8645 82.955 21.7578C82.7046 21.651 82.4175 21.7752 82.3138 22.0353L68.1704 57.5073ZM68.7029 59.2022L68.7872 59.4704C68.8826 59.774 69.0457 60.0423 69.2568 60.2607L75.6525 48.8044L74.7939 48.2917L68.7029 59.2022ZM69.2819 60.2861C69.5193 60.5231 69.8143 60.6985 70.1403 60.7926L93.9829 28.552C94.1485 28.3282 94.1085 28.009 93.8937 27.839C93.6788 27.6691 93.3705 27.7128 93.205 27.9367L69.2819 60.2861ZM70.2657 60.8245C70.4047 60.855 70.5486 60.871 70.6952 60.871H71.8119L101.514 37.223C101.73 37.051 101.771 36.732 101.606 36.5105C101.442 36.289 101.133 36.2488 100.917 36.4208L76.4179 55.9262L79.8851 52.3405L79.19 51.6216L70.3771 60.7358L70.2657 60.8245ZM74.4699 60.871H77.6179C77.7352 60.871 77.8485 60.8801 77.9573 60.8975L107.626 48.131C107.878 48.0227 107.997 47.7256 107.894 47.4674C107.79 47.2091 107.501 47.0875 107.25 47.1958L78.8712 59.4072L83.0886 56.8891L82.6011 56.0159L74.4699 60.871ZM79.6023 62.6107C79.6942 63.2737 79.464 63.9855 78.8193 64.4699L78.426 64.7654L110.801 60.3033C111.07 60.2661 111.26 60.0109 111.224 59.7332C111.188 59.4555 110.941 59.2605 110.671 59.2977L80.0933 63.5122L85.0445 62.1401L84.7937 61.1721L79.6023 62.6107ZM75.8043 66.7353L74.4735 67.7353H85.6197V66.7353H75.8043ZM74.0899 68.0235L73.1043 68.764C73.0494 68.8053 72.997 68.8491 72.9473 68.895L110.821 73.9883C111.09 74.0245 111.337 73.8282 111.372 73.5498C111.407 73.2714 111.217 73.0164 110.948 72.9802L74.0899 68.0235ZM72.8794 68.9609C72.5915 69.2536 72.4044 69.6244 72.3354 70.0195L107.686 85.0946C107.936 85.2014 108.223 85.0771 108.327 84.817C108.431 84.5569 108.312 84.2595 108.061 84.1527L78.5642 71.5737L84.7749 73.2948L85.0257 72.3267L72.8794 68.9609ZM72.4902 71.2568L73.2163 73.568L101.607 96.024C101.822 96.1939 102.131 96.1502 102.296 95.9263C102.462 95.7025 102.422 95.3833 102.207 95.2134L76.1634 74.6142L82.5676 78.4382L83.0551 77.565L72.4902 71.2568ZM73.9958 76.049L74.5531 77.8229C74.5867 77.9299 74.6113 78.0357 74.6274 78.14L79.1484 82.8155L79.8435 82.0966L73.9958 76.049ZM74.6434 78.6197C74.6067 79.0271 74.442 79.3949 74.1949 79.691L93.0006 104.954C93.1655 105.175 93.4743 105.215 93.6904 105.043C93.9064 104.871 93.9479 104.552 93.783 104.331L74.6434 78.6197ZM72.7136 80.4299C72.2895 80.4469 71.8469 80.3243 71.4436 80.0213L71.2664 79.8881L74.7502 86.1285L75.6088 85.6159L72.7136 80.4299ZM70.7315 79.4862L69.1997 78.3352L82.4521 111.275C82.556 111.533 82.8442 111.655 83.0957 111.547C83.3473 111.438 83.467 111.141 83.3631 110.883L70.7315 79.4862ZM67.9113 77.3671L65.9844 75.9193C65.8867 75.8459 65.7839 75.7825 65.6775 75.7293L70.681 114.557C70.7168 114.834 70.9644 115.029 71.2341 114.992C71.5037 114.955 71.6933 114.7 71.6575 114.422L66.8865 77.3981L69.6725 88.1514L70.6362 87.8843L67.9113 77.3671ZM65.2625 75.5764C64.6921 75.4357 64.073 75.55 63.5815 75.9193L63.3264 76.111L58.4899 114.576C58.4549 114.854 58.6448 115.109 58.914 115.145C59.1832 115.182 59.4298 114.985 59.4648 114.707L64.2625 76.5497V88.7462H65.2625V75.5764ZM62.9371 76.4034L61.6546 77.3671L58.9295 87.8849L59.8932 88.152L62.9371 76.4034ZM61.1668 77.7336L59.6519 78.8719L46.7098 111.331C46.6061 111.591 46.725 111.888 46.9754 111.995C47.2259 112.102 47.513 111.978 47.6167 111.718L61.1668 77.7336ZM58.2995 79.8881L58.1223 80.0213C57.719 80.3243 57.2764 80.4469 56.8523 80.4299L53.9571 85.6159L54.8157 86.1285L58.2995 79.8881ZM55.8524 80.1131C55.5668 79.9318 55.3254 79.6812 55.1591 79.3832L35.8682 105.469C35.7027 105.693 35.7427 106.012 35.9575 106.182C36.1723 106.352 36.4807 106.308 36.6462 106.084L55.8524 80.1131ZM54.9385 78.14C54.9546 78.0357 54.9792 77.9299 55.0128 77.8229L55.5701 76.049L49.7224 82.0966L50.4175 82.8155L54.9385 78.14ZM64.7625 29.4861C65.0387 29.4861 65.2625 29.71 65.2625 29.9861L65.2625 39.1832H64.2625L64.2625 29.9861C64.2625 29.71 64.4864 29.4861 64.7625 29.4861ZM65.2625 104.408L65.2625 95.2109H64.2625L64.2625 104.408C64.2625 104.684 64.4864 104.908 64.7625 104.908C65.0387 104.908 65.2625 104.684 65.2625 104.408ZM55.9308 31.1266C55.8615 30.8593 55.5897 30.7024 55.3235 30.7761C55.0574 30.8499 54.8978 31.1264 54.9671 31.3937L57.2686 40.2766L58.2323 40.0096L55.9308 31.1266ZM72.2541 94.1288L74.5555 103.011C74.6248 103.279 74.4652 103.555 74.1991 103.629C73.933 103.703 73.6611 103.546 73.5918 103.279L71.2904 94.3958L72.2541 94.1288ZM55.0101 103.012C54.9409 103.28 55.1004 103.556 55.3666 103.63C55.6327 103.704 55.9045 103.547 55.9738 103.279L58.2753 94.3964L57.3116 94.1294L55.0101 103.012ZM71.3334 40.0102L72.2971 40.2773L74.5986 31.3946C74.6678 31.1273 74.5082 30.8508 74.2421 30.7771C73.976 30.7033 73.7041 30.8602 73.6349 31.1275L71.3334 40.0102ZM96.1015 86.5191L87.9812 81.6705L88.4686 80.7974L96.589 85.6459L96.1015 86.5191ZM41.5513 52.7835L41.0638 53.6567L32.9435 48.8081L33.431 47.935L41.5513 52.7835ZM33.2207 86.0825C33.0861 85.8414 33.1692 85.5312 33.4062 85.3896L41.0973 80.7974L41.5847 81.6705L33.8937 86.2628C33.6566 86.4043 33.3553 86.3236 33.2207 86.0825ZM95.7057 48.1913L88.0147 52.7835L88.5021 53.6567L96.1931 49.0645C96.4302 48.9229 96.5133 48.6127 96.3787 48.3716C96.2441 48.1305 95.9428 48.0498 95.7057 48.1913ZM29.5706 76.9937C29.5013 76.7264 29.6609 76.4499 29.927 76.3762L38.5022 73.9999L38.753 74.968L30.1778 77.3442C29.9117 77.418 29.6398 77.261 29.5706 76.9937ZM99.4069 57.1226L90.8317 59.4989L91.0825 60.4669L99.6577 58.0907C99.9239 58.0169 100.083 57.7404 100.014 57.4731C99.9449 57.2058 99.673 57.0489 99.4069 57.1226ZM39.6732 40.5529C39.4812 40.3544 39.17 40.3544 38.978 40.5529C38.7861 40.7514 38.7861 41.0733 38.978 41.2718L45.2607 47.7692L45.9558 47.0503L39.6732 40.5529ZM84.2637 86.6679L90.5463 93.1653C90.7383 93.3638 90.7383 93.6857 90.5463 93.8842C90.3544 94.0827 90.0431 94.0827 89.8512 93.8842L83.5685 87.3868L84.2637 86.6679ZM83.4662 34.8078L78.778 43.2057L77.9194 42.6931L82.6077 34.2951L83.4662 34.8078ZM50.8316 91.2145L51.6902 91.7271L47.0019 100.125L46.1433 99.6124L50.8316 91.2145ZM28.8187 66.7353C28.5425 66.7353 28.3187 66.9591 28.3187 67.2353C28.3187 67.5114 28.5425 67.7353 28.8187 67.7353H37.6952V66.7353H28.8187ZM91.8707 66.7353H100.747C101.023 66.7353 101.247 66.9591 101.247 67.2353C101.247 67.5114 101.023 67.7353 100.747 67.7353H91.8707V66.7353ZM46.529 34.5515C46.7661 34.4099 47.0674 34.4906 47.202 34.7317L51.6465 42.6931L50.7879 43.2057L46.3434 35.2444C46.2088 35.0033 46.2919 34.693 46.529 34.5515ZM83.1788 99.1758L78.7343 91.2145L77.8757 91.7271L82.3202 99.6885C82.4548 99.9296 82.7562 100.01 82.9933 99.8687C83.2304 99.7272 83.3134 99.4169 83.1788 99.1758ZM39.0196 93.1653C38.8276 93.3638 38.8276 93.6857 39.0196 93.8842C39.2115 94.0827 39.5228 94.0827 39.7147 93.8842L45.9974 87.3868L45.3022 86.6679L39.0196 93.1653ZM83.6101 47.0503L89.8928 40.5529C90.0847 40.3544 90.3959 40.3544 90.5879 40.5529C90.7799 40.7514 90.7799 41.0733 90.5879 41.2718L84.3053 47.7692L83.6101 47.0503ZM29.5517 57.4731C29.621 57.2058 29.8929 57.0489 30.159 57.1226L38.7342 59.4989L38.4834 60.4669L29.9082 58.0907C29.642 58.0169 29.4825 57.7404 29.5517 57.4731ZM99.6389 76.3762L91.0637 73.9999L90.8129 74.968L99.3881 77.3442C99.6542 77.418 99.9261 77.261 99.9953 76.9937C100.065 76.7264 99.905 76.4499 99.6389 76.3762Z" fill="black"/>
<path d="M64.0436 55.2875C64.1903 54.8207 64.851 54.8207 64.9977 55.2875L67.2162 62.3487C67.2816 62.5571 67.4748 62.6989 67.6932 62.6989H74.9071C75.3874 62.6989 75.5915 63.3101 75.2075 63.5986L69.3427 68.0053C69.1733 68.1326 69.1025 68.3528 69.166 68.5549L71.3993 75.6633C71.545 76.1269 71.0105 76.5048 70.6219 76.2129L64.821 71.8542C64.6431 71.7205 64.3982 71.7205 64.2203 71.8542L58.4194 76.2129C58.0309 76.5048 57.4964 76.1269 57.642 75.6633L59.8753 68.5549C59.9388 68.3528 59.868 68.1326 59.6987 68.0053L53.8338 63.5986C53.4499 63.3101 53.6539 62.6989 54.1342 62.6989H61.3482C61.5666 62.6989 61.7597 62.5571 61.8252 62.3487L64.0436 55.2875Z" fill="#F50578" fill-opacity="0.63"/>
<path d="M13.8605 43.1163L13.1861 44.6504L6.95412 42.1345L5.93786 44.4463L4.3785 43.8168L7.08303 37.6643L8.64239 38.2938L7.62849 40.6004L13.8605 43.1163Z" fill="black"/>
<path d="M16.2759 38.8996L15.443 40.2652L7.79028 35.9787L8.6232 34.613L11.0412 35.9674C11.0148 35.7334 11.0289 35.5153 11.0835 35.3133C11.1348 35.1093 11.2153 34.9173 11.3251 34.7372C11.5265 34.407 11.7804 34.1332 12.0869 33.9156C12.3899 33.6961 12.719 33.5426 13.0741 33.4551C13.4278 33.3625 13.7923 33.3384 14.1674 33.383C14.5412 33.4224 14.8968 33.5365 15.2342 33.7255L18.3628 35.4779L17.5238 36.8536L14.3952 35.1012L14.4013 35.0912C14.2582 35.011 14.1073 34.9623 13.9486 34.945C13.7866 34.9258 13.6294 34.9362 13.477 34.9761C13.3246 35.016 13.1835 35.0824 13.0538 35.1753C12.924 35.2681 12.8164 35.3846 12.7309 35.5246C12.6435 35.668 12.5884 35.8184 12.5656 35.9757C12.5428 36.1329 12.5507 36.285 12.5892 36.4318C12.6276 36.5786 12.6954 36.715 12.7923 36.8409C12.8859 36.9649 13.0042 37.067 13.1474 37.1471L16.2759 38.8996Z" fill="black"/>
<path d="M19.672 31.619C19.727 31.582 19.7773 31.5416 19.8229 31.4976C19.8653 31.4514 19.9061 31.4039 19.9454 31.3553C20.0437 31.2338 20.121 31.1041 20.1773 30.966C20.2337 30.828 20.2698 30.6871 20.2857 30.5434C20.3009 30.3942 20.2937 30.2479 20.2641 30.1044C20.2339 29.9556 20.182 29.815 20.1084 29.6825L21.7907 29.4733C21.8667 29.7145 21.9108 29.9611 21.9229 30.2131C21.9374 30.4621 21.9205 30.7096 21.8721 30.9556C21.8262 31.1986 21.7482 31.4348 21.6381 31.6642C21.5335 31.8928 21.399 32.1089 21.2344 32.3124C20.9569 32.6557 20.6295 32.9303 20.2522 33.1362C19.8774 33.3392 19.4802 33.4672 19.0608 33.5204C18.6439 33.5705 18.2211 33.541 17.7924 33.4318C17.3607 33.3202 16.9503 33.12 16.5614 32.8313C16.1631 32.5356 15.8521 32.2001 15.6284 31.825C15.4047 31.4499 15.2677 31.0637 15.2173 30.6666C15.1694 30.2665 15.2027 29.8683 15.3173 29.4721C15.4343 29.0729 15.6315 28.7016 15.9091 28.3584C16.0736 28.1548 16.2595 27.9745 16.4669 27.8173C16.6743 27.6602 16.895 27.53 17.129 27.4267C17.3656 27.3203 17.6142 27.2425 17.875 27.193C18.1327 27.1413 18.3928 27.1206 18.6555 27.1309L19.672 31.619ZM17.5392 29.0145C17.4706 29.056 17.4098 29.1032 17.3569 29.1563C17.3064 29.2063 17.2566 29.2617 17.2075 29.3224C17.0699 29.4925 16.9727 29.678 16.9158 29.8788C16.8582 30.0742 16.8435 30.2723 16.8718 30.4732C16.9026 30.6711 16.9769 30.8648 17.0947 31.0543C17.2093 31.2415 17.3717 31.4131 17.5818 31.5691C17.6289 31.6041 17.6834 31.6421 17.7455 31.6833C17.81 31.7215 17.8773 31.7593 17.9474 31.7968C18.0168 31.8289 18.0858 31.8583 18.1546 31.885C18.2233 31.9117 18.2895 31.9293 18.353 31.9376L17.5392 29.0145Z" fill="black"/>
<path d="M25.0131 19.4372L27.1777 22.0114L28.5086 20.9835C28.691 20.8427 28.835 20.6773 28.9404 20.4873C29.0434 20.2944 29.1061 20.0931 29.1286 19.8834C29.1511 19.6737 29.1311 19.4648 29.0683 19.2568C29.0062 19.0435 28.901 18.8486 28.7526 18.6722C28.6043 18.4958 28.4292 18.3573 28.2274 18.2568C28.0261 18.1508 27.8162 18.0861 27.5976 18.0626C27.379 18.0392 27.1616 18.0566 26.9455 18.115C26.7269 18.1704 26.5264 18.2685 26.344 18.4094L25.0131 19.4372ZM29.3385 24.5811L28.0075 25.6089L22.5998 19.178L25.2618 17.1223C25.506 16.9337 25.7674 16.7836 26.0458 16.6721C26.3218 16.5576 26.605 16.482 26.8953 16.4451C27.1861 16.403 27.4786 16.399 27.7726 16.4333C28.0672 16.4622 28.3521 16.5282 28.6274 16.6312C28.9058 16.7318 29.1677 16.8674 29.413 17.0379C29.6615 17.206 29.885 17.4081 30.0836 17.6443C30.3803 17.9971 30.591 18.3842 30.7159 18.8056C30.8382 19.2239 30.8768 19.6428 30.8318 20.0623C30.7867 20.4817 30.6584 20.884 30.4469 21.2693C30.2385 21.6521 29.9519 21.9844 29.5871 22.2661L28.2562 23.294L29.3385 24.5811Z" fill="black"/>
<path d="M39.3963 18.2881L39.0604 18.4798L38.0663 18.0562C38.0062 18.2478 37.9335 18.4377 37.8481 18.6257C37.7641 18.8085 37.6644 18.9845 37.549 19.1538C37.4315 19.3197 37.2997 19.4736 37.1534 19.6155C37.0106 19.7555 36.851 19.8758 36.6746 19.9765C36.2913 20.1953 35.8908 20.3385 35.4732 20.4061C35.059 20.4718 34.6504 20.4578 34.2475 20.3641C33.8459 20.2652 33.464 20.0833 33.1016 19.8182C32.7392 19.5531 32.4198 19.1983 32.1435 18.7537C31.8857 18.339 31.7226 17.9175 31.654 17.4892C31.5834 17.0576 31.5962 16.6457 31.6926 16.2536C31.7924 15.8595 31.968 15.4986 32.2193 15.1709C32.4719 14.8379 32.7899 14.562 33.1732 14.3432C33.3497 14.2425 33.5378 14.1643 33.7376 14.1087C33.9374 14.053 34.1425 14.0169 34.3527 14.0003C34.563 13.9836 34.773 13.9851 34.9828 14.0047C35.196 14.0223 35.4042 14.054 35.6073 14.0999L35.7539 13.16L36.0898 12.9683L39.3963 18.2881ZM36.3111 16.3747C36.1957 16.1889 36.047 16.0311 35.8651 15.9012C35.6846 15.766 35.4903 15.6679 35.2823 15.6068C35.0723 15.5425 34.8577 15.5189 34.6386 15.5361C34.4208 15.548 34.2169 15.6082 34.0269 15.7167C33.837 15.8251 33.6767 15.9593 33.5463 16.1191C33.4192 16.277 33.3311 16.4532 33.2819 16.6476C33.2361 16.8401 33.2342 17.0479 33.2764 17.271C33.3165 17.4908 33.4087 17.7169 33.5531 17.9491C33.6974 18.1813 33.8619 18.3683 34.0466 18.5102C34.2292 18.6486 34.4197 18.7444 34.6181 18.7974C34.8199 18.8485 35.0235 18.8582 35.2289 18.8263C35.4377 18.7925 35.6371 18.7214 35.8271 18.613C36.0171 18.5045 36.1704 18.363 36.2872 18.1885C36.4053 18.0088 36.4858 17.8167 36.5288 17.6124C36.5698 17.4047 36.5723 17.1943 36.5363 16.9811C36.5017 16.7626 36.4266 16.5605 36.3111 16.3747Z" fill="black"/>
<path d="M42.5651 17.0918L41.0857 17.7305L37.3542 9.79229L38.8336 9.15364L42.5651 17.0918Z" fill="black"/>
<path d="M47.6595 17.8574L46.1188 18.3293L43.3775 10.1083L43.7473 9.99503L44.5971 10.5251C44.692 10.353 44.8025 10.1844 44.9285 10.0192C45.0546 9.85402 45.1918 9.70377 45.3401 9.56849C45.491 9.42836 45.6536 9.30503 45.8281 9.19853C46.0025 9.09202 46.1868 9.00902 46.381 8.94954C46.8031 8.82029 47.2243 8.77501 47.6448 8.81371C48.0677 8.84755 48.4631 8.95926 48.8309 9.14884C49.2025 9.33727 49.5334 9.60144 49.8238 9.94135C50.1129 10.2776 50.3359 10.681 50.4929 11.1516C50.656 11.6407 50.7227 12.1063 50.6931 12.5483C50.6622 12.9866 50.5524 13.3857 50.3638 13.7457C50.1776 14.1009 49.9218 14.4079 49.5965 14.6668C49.2749 14.9246 48.9031 15.1181 48.481 15.2473C48.3466 15.2885 48.2072 15.3148 48.0628 15.3264C47.9222 15.3368 47.7785 15.3379 47.6317 15.3298C47.4874 15.3168 47.3413 15.2982 47.1933 15.2741C47.049 15.2489 46.9079 15.2206 46.7699 15.1894L47.6595 17.8574ZM48.9578 11.6217C48.8737 11.3697 48.7573 11.1562 48.6084 10.9813C48.4632 10.8052 48.2987 10.6698 48.1148 10.575C47.9296 10.4765 47.7313 10.4188 47.5198 10.4019C47.3084 10.385 47.0981 10.4085 46.8889 10.4726C46.6797 10.5366 46.4941 10.6343 46.3321 10.7656C46.1738 10.8958 46.049 11.0524 45.9578 11.2356C45.8653 11.415 45.8113 11.6173 45.7959 11.8426C45.7842 12.0667 45.8203 12.3048 45.9044 12.5568C45.9847 12.7976 46.0974 13.0061 46.2426 13.1822C46.3915 13.3571 46.5585 13.4939 46.7437 13.5924C46.9288 13.6908 47.1259 13.751 47.3348 13.7728C47.5475 13.7934 47.7585 13.7717 47.9676 13.7076C48.1768 13.6436 48.3618 13.544 48.5226 13.409C48.6834 13.274 48.8094 13.1149 48.9006 12.9318C48.9919 12.7487 49.0434 12.545 49.0551 12.3209C49.0705 12.0956 49.0381 11.8626 48.9578 11.6217Z" fill="black"/>
<path d="M58.8199 13.1001L58.4382 13.1622L57.6749 12.4139C57.5484 12.573 57.4109 12.726 57.2623 12.8728C57.117 13.0152 56.9596 13.1456 56.7903 13.2642C56.6202 13.379 56.4413 13.4773 56.2535 13.5593C56.0696 13.6407 55.8774 13.6977 55.6769 13.7304C55.2412 13.8013 54.8177 13.795 54.4062 13.7116C53.9986 13.6275 53.6257 13.4706 53.2874 13.2407C52.9524 13.0064 52.6662 12.7007 52.4288 12.3239C52.1915 11.947 52.0271 11.5008 51.9358 10.9854C51.8506 10.5046 51.8554 10.0507 51.9503 9.62374C52.0446 9.1929 52.2088 8.81002 52.4429 8.47512C52.681 8.13958 52.9769 7.8619 53.3306 7.64209C53.6876 7.41779 54.0839 7.27019 54.5195 7.19929C54.72 7.16666 54.923 7.15935 55.1285 7.17735C55.334 7.19535 55.5371 7.23353 55.7379 7.29187C55.9386 7.35022 56.1324 7.42552 56.3194 7.51778C56.5101 7.6094 56.691 7.71253 56.8621 7.82715L57.3453 6.99466L57.727 6.93254L58.8199 13.1001ZM56.6723 10.2146C56.6341 9.99919 56.5549 9.79839 56.4346 9.61218C56.3176 9.42151 56.174 9.26085 56.0041 9.13021C55.8335 8.99573 55.6437 8.89802 55.4345 8.83708C55.2286 8.77167 55.0176 8.75653 54.8017 8.79167C54.5858 8.82681 54.3879 8.8966 54.2081 9.00106C54.0321 9.10488 53.8854 9.23956 53.768 9.40509C53.6544 9.56999 53.5759 9.76481 53.5324 9.98953C53.4883 10.2104 53.49 10.4555 53.5378 10.7247C53.5855 10.994 53.6685 11.2278 53.787 11.4261C53.9048 11.6207 54.0457 11.7778 54.2097 11.8975C54.3776 12.0166 54.5624 12.0973 54.7643 12.1397C54.97 12.1814 55.1808 12.1846 55.3968 12.1495C55.6127 12.1144 55.8069 12.0353 55.9795 11.9122C56.1552 11.7847 56.3008 11.6324 56.4162 11.4553C56.5309 11.2744 56.611 11.0773 56.6565 10.8642C56.7052 10.6465 56.7105 10.43 56.6723 10.2146Z" fill="black"/>
<path d="M63.7012 12.9972C63.3148 13.0113 62.9488 12.9523 62.6035 12.8203C62.258 12.6843 61.9514 12.4942 61.6837 12.2499C61.4197 12.0015 61.2069 11.7102 61.0451 11.3761C60.8872 11.0417 60.8005 10.6814 60.7852 10.295L60.7114 8.43314L59.9326 8.4615L59.8695 6.86901L60.6482 6.84064L60.5489 4.3348L62.1416 4.2768L62.2409 6.78264L64.6651 6.69435L64.7283 8.28685L62.3041 8.37514L62.3779 10.237C62.3846 10.4048 62.4221 10.5617 62.4904 10.7078C62.5586 10.8499 62.6495 10.9736 62.7631 11.079C62.8768 11.1843 63.0091 11.2674 63.1601 11.3283C63.3109 11.3854 63.4702 11.4109 63.6381 11.4048L64.8502 11.3606L64.9133 12.9531L63.7012 12.9972Z" fill="black"/>
<path d="M69.6209 5.26649C69.6108 5.41459 69.5722 5.55111 69.5049 5.67607C69.4416 5.80127 69.3579 5.90954 69.2538 6.00088C69.15 6.08832 69.0298 6.15713 68.8932 6.2073C68.7609 6.25382 68.6206 6.27246 68.4725 6.2632C68.3243 6.25394 68.1858 6.21789 68.057 6.15504C67.9323 6.08855 67.8244 6.00548 67.7333 5.90586C67.6464 5.80258 67.578 5.68481 67.5283 5.55255C67.4825 5.42053 67.4646 5.28047 67.4747 5.13238C67.4845 4.98818 67.5211 4.85348 67.5844 4.72828C67.6519 4.59943 67.7356 4.49116 67.8355 4.40347C67.9396 4.31213 68.0579 4.2432 68.1902 4.19668C68.3268 4.14651 68.4691 4.12605 68.6173 4.13531C68.7654 4.14456 68.9018 4.18244 69.0265 4.24894C69.1553 4.31179 69.2652 4.39497 69.356 4.49849C69.4471 4.59811 69.5155 4.71589 69.561 4.8518C69.6107 4.98407 69.6307 5.1223 69.6209 5.26649ZM68.8043 13.2114L67.1961 13.1109L67.6221 6.84996L69.2303 6.95046L68.8043 13.2114Z" fill="black"/>
<path d="M73.3982 13.7859L71.8207 13.5208L72.9505 7.34793L73.3319 7.41204L73.7422 8.09888C74.0387 7.91107 74.358 7.78257 74.7003 7.71336C75.0471 7.64095 75.3957 7.63421 75.7463 7.69314C76.1238 7.7566 76.4668 7.88951 76.7752 8.09185C77.0843 8.29036 77.3408 8.53746 77.5448 8.83315C77.7495 9.125 77.8922 9.45197 77.9728 9.81406C78.058 10.173 78.0658 10.5426 77.9961 10.923L77.3505 14.4503L75.773 14.1852L76.4187 10.6578C76.4482 10.4964 76.4452 10.3395 76.4096 10.187C76.3747 10.0306 76.3131 9.88954 76.2249 9.76383C76.1368 9.63811 76.027 9.53253 75.8958 9.44709C75.7645 9.36165 75.618 9.30533 75.4562 9.27814C75.2905 9.25029 75.1289 9.2548 74.9712 9.29168C74.8136 9.32855 74.671 9.39171 74.5435 9.48117C74.4159 9.57062 74.3079 9.68318 74.2196 9.81883C74.1319 9.95064 74.0733 10.0972 74.0438 10.2586L73.3982 13.7859Z" fill="black"/>
<path d="M81.6924 14.1649C81.7462 14.2014 81.8018 14.2324 81.8592 14.2578C81.9179 14.2795 81.9771 14.2994 82.037 14.3173C82.1866 14.3623 82.3373 14.3852 82.4891 14.3859C82.6409 14.3867 82.7888 14.3679 82.9328 14.3297C83.0817 14.2888 83.2206 14.2286 83.3494 14.149C83.4831 14.0669 83.6017 13.968 83.7053 13.8523L84.4613 15.3089C84.2536 15.4667 84.0301 15.5973 83.7908 15.7007C83.5552 15.8052 83.3107 15.8806 83.0573 15.9268C82.8076 15.9741 82.554 15.9896 82.2963 15.9733C82.0412 15.9619 81.7883 15.9185 81.5377 15.8432C81.115 15.7162 80.7421 15.5185 80.419 15.2501C80.0996 14.9829 79.8452 14.6679 79.6558 14.3051C79.4701 13.9435 79.3593 13.5473 79.3236 13.1166C79.2891 12.6821 79.3471 12.2347 79.4978 11.7744C79.6521 11.3029 79.8734 10.8964 80.1618 10.5549C80.4503 10.2134 80.7778 9.94694 81.1446 9.75541C81.515 9.565 81.9104 9.44934 82.3305 9.40842C82.7544 9.36863 83.1777 9.41226 83.6005 9.5393C83.8511 9.61462 84.0864 9.71796 84.3064 9.84931C84.5264 9.98066 84.7248 10.1341 84.9016 10.3095C85.0821 10.4861 85.2392 10.6842 85.3728 10.9037C85.5076 11.1196 85.6133 11.3491 85.6898 11.5923L81.6924 14.1649ZM83.504 11.2657C83.4414 11.2184 83.3758 11.1803 83.3071 11.1515C83.2422 11.1238 83.1723 11.0988 83.0975 11.0763C82.888 11.0133 82.677 10.9927 82.4644 11.0145C82.2568 11.0336 82.0607 11.093 81.8762 11.1924C81.6953 11.293 81.5328 11.4318 81.3887 11.6087C81.2457 11.7818 81.1336 11.9928 81.0522 12.2415C81.0339 12.2972 81.0152 12.3609 80.9958 12.4325C80.9802 12.5053 80.9659 12.5805 80.9528 12.6581C80.9447 12.7332 80.939 12.8069 80.9359 12.8794C80.9327 12.9518 80.9376 13.0185 80.9505 13.0795L83.504 11.2657Z" fill="black"/>
<path d="M96.8552 22.0071C96.3386 22.0988 95.8225 22.1009 95.307 22.0133C94.7915 21.9258 94.3081 21.7533 93.8569 21.4957C93.5109 21.2982 93.2046 21.0627 92.938 20.7892C92.6727 20.5209 92.4488 20.2267 92.2662 19.9068C92.089 19.5854 91.9552 19.2461 91.8647 18.8888C91.7743 18.5315 91.7305 18.1694 91.7333 17.8025C91.7416 17.4342 91.7969 17.0679 91.8992 16.7038C92.0068 16.3383 92.1659 15.9863 92.3762 15.6479C92.5865 15.3095 92.8337 15.0079 93.1178 14.7431C93.4053 14.4802 93.715 14.2592 94.047 14.0801C94.3843 13.8996 94.7385 13.7624 95.1094 13.6685C95.4803 13.5746 95.8543 13.5274 96.2315 13.5269C96.6141 13.5251 96.9917 13.5721 97.3642 13.6678C97.7421 13.7622 98.1041 13.9082 98.4502 14.1057C98.9014 14.3633 99.2899 14.6884 99.6157 15.0811C99.9435 15.4706 100.187 15.9064 100.347 16.3887L98.8005 17.1913C98.727 16.8437 98.5815 16.5269 98.364 16.2409C98.1485 15.9516 97.8813 15.716 97.5624 15.534C97.2402 15.35 96.9011 15.2374 96.5453 15.1961C96.1895 15.1548 95.8425 15.1769 95.5043 15.2626C95.1682 15.3449 94.8525 15.4905 94.5571 15.6995C94.2639 15.9051 94.0203 16.1639 93.8265 16.4758C93.6326 16.7876 93.5112 17.1161 93.4622 17.4612C93.4152 17.8029 93.433 18.1367 93.5155 18.4624C93.598 18.7882 93.7429 19.0911 93.9502 19.3713C94.1576 19.6515 94.4224 19.8835 94.7446 20.0675C95.0635 20.2495 95.406 20.3641 95.772 20.4112C96.14 20.455 96.501 20.4251 96.855 20.3215L96.8552 22.0071Z" fill="black"/>
<path d="M98.3315 24.3334L97.0499 23.3762L101.009 18.5075L101.319 18.7389L101.272 19.6318C101.626 19.6043 101.975 19.6402 102.316 19.7395C102.661 19.8359 102.974 19.9892 103.255 20.1996L104.387 21.0446L103.381 22.2811L102.25 21.4361C102.115 21.3356 101.969 21.2651 101.81 21.2248C101.652 21.1845 101.494 21.174 101.338 21.1934C101.181 21.2128 101.031 21.2614 100.887 21.3392C100.743 21.4169 100.619 21.521 100.513 21.6513L98.3315 24.3334Z" fill="black"/>
<path d="M105.512 29.634C105.334 29.6266 105.154 29.6084 104.97 29.5794C104.792 29.5504 104.617 29.5078 104.445 29.4518C104.276 29.393 104.113 29.3193 103.958 29.2307C103.802 29.1476 103.661 29.0454 103.533 28.9243C103.253 28.6579 103.039 28.3601 102.891 28.0309C102.743 27.7018 102.666 27.3615 102.659 27.0102C102.657 26.6589 102.732 26.3072 102.883 25.9552C103.039 25.6032 103.279 25.2712 103.602 24.9591L106.097 22.549L107.252 23.6472L104.757 26.0572C104.606 26.2038 104.492 26.3569 104.416 26.5167C104.347 26.6764 104.311 26.8333 104.308 26.9874C104.306 27.1415 104.336 27.2886 104.399 27.4289C104.464 27.5719 104.558 27.7013 104.68 27.817C104.799 27.9301 104.937 28.0106 105.095 28.0586C105.259 28.1066 105.426 28.1249 105.595 28.1134C105.764 28.1019 105.927 28.0634 106.085 27.9979C106.245 27.9297 106.386 27.8372 106.507 27.7205L109.002 25.3105L110.161 26.4126L105.648 30.7727L105.367 30.5062L105.512 29.634Z" fill="black"/>
<path d="M107.622 33.1851L106.616 31.9412L111.654 28.2002L111.898 28.5009L111.74 29.2743C112.09 29.3351 112.417 29.4542 112.722 29.6319C113.031 29.8102 113.298 30.0376 113.521 30.314C113.762 30.6117 113.93 30.9369 114.024 31.2897C114.122 31.6401 114.147 31.9909 114.1 32.342C114.055 32.6909 113.941 33.0239 113.756 33.3412C113.576 33.6593 113.331 33.9335 113.02 34.1641L110.141 36.3018L109.136 35.0578L112.015 32.9201C112.147 32.8223 112.251 32.7061 112.328 32.5713C112.407 32.4342 112.457 32.2905 112.476 32.1403C112.495 31.99 112.484 31.8401 112.443 31.6904C112.403 31.5408 112.331 31.4021 112.228 31.2745C112.122 31.1439 111.998 31.0395 111.854 30.9614C111.711 30.8832 111.561 30.8342 111.404 30.8143C111.247 30.7945 111.09 30.8045 110.931 30.8444C110.776 30.8819 110.632 30.9496 110.501 31.0474L107.622 33.1851Z" fill="black"/>
<path d="M118.114 39.7284L116.476 39.3035C116.589 39.1733 116.675 39.0334 116.735 38.8837C116.798 38.732 116.835 38.5793 116.846 38.4253C116.859 38.2747 116.848 38.1246 116.811 37.9749C116.775 37.8253 116.716 37.6838 116.635 37.5504C116.521 37.3636 116.374 37.2088 116.194 37.086C116.016 36.9665 115.818 36.8851 115.599 36.8419C115.386 36.8001 115.161 36.7986 114.924 36.8374C114.687 36.8761 114.451 36.9614 114.216 37.0931C114.025 37.2 113.868 37.3353 113.743 37.4988C113.619 37.6624 113.531 37.8395 113.478 38.0302C113.427 38.2242 113.415 38.423 113.444 38.6265C113.474 38.8333 113.546 39.0301 113.66 39.2169C113.741 39.3503 113.838 39.4682 113.951 39.5706C114.064 39.673 114.187 39.7584 114.32 39.827C114.458 39.8969 114.603 39.9459 114.752 39.9739C114.907 40.0034 115.063 40.0104 115.218 39.995L114.801 41.5711C114.539 41.5474 114.284 41.4933 114.036 41.4086C113.79 41.3273 113.557 41.2185 113.337 41.0824C113.118 40.9496 112.919 40.7908 112.737 40.606C112.555 40.4264 112.395 40.2249 112.259 40.0015C112.029 39.6246 111.884 39.2294 111.824 38.8157C111.769 38.4034 111.791 38.0016 111.891 37.6103C111.993 37.2222 112.169 36.862 112.418 36.5296C112.668 36.1972 112.986 35.9232 113.371 35.7075C113.79 35.4727 114.226 35.3248 114.678 35.264C115.13 35.2031 115.566 35.2207 115.986 35.3167C116.411 35.4141 116.803 35.5839 117.161 35.8263C117.521 36.072 117.816 36.3832 118.046 36.7601C118.182 36.9835 118.286 37.2182 118.359 37.4641C118.433 37.7133 118.473 37.9661 118.478 38.2225C118.489 38.4804 118.464 38.7359 118.404 38.989C118.345 39.2455 118.249 39.4919 118.114 39.7284Z" fill="black"/>
<path d="M114.977 45.0219L114.333 43.5576L122.467 40.2739L123.111 41.7383L120.541 42.7758C120.752 42.8969 120.926 43.0395 121.062 43.2035C121.201 43.3661 121.314 43.5439 121.398 43.737C121.554 44.091 121.631 44.4514 121.631 44.8181C121.633 45.1833 121.565 45.5286 121.427 45.854C121.294 46.1814 121.097 46.4757 120.836 46.7367C120.581 46.9998 120.274 47.2037 119.915 47.3485L116.59 48.6909L115.942 47.2158L119.267 45.8734L119.271 45.8841C119.424 45.8227 119.554 45.7363 119.663 45.625C119.775 45.5122 119.86 45.3853 119.918 45.2442C119.975 45.1032 120.004 44.9548 120.004 44.7991C120.003 44.6434 119.97 44.4904 119.904 44.3402C119.837 44.1864 119.744 44.0533 119.626 43.9408C119.509 43.8283 119.377 43.7425 119.232 43.6833C119.086 43.6241 118.932 43.5937 118.769 43.5921C118.61 43.589 118.455 43.6181 118.302 43.6795L114.977 45.0219Z" fill="black"/>
</svg>
